<?xml version="1.0" standalone="no"?>
<!DOCTYPE svg PUBLIC "-//W3C//DTD SVG 20010904//EN"
 "http://www.w3.org/TR/2001/REC-SVG-20010904/DTD/svg10.dtd">
<svg version="1.0" xmlns="http://www.w3.org/2000/svg"
 width="233.000000pt" height="233.000000pt" viewBox="0 0 233.000000 233.000000"
 preserveAspectRatio="xMidYMid meet">
<metadata>
Created by potrace 1.11, written by Peter Selinger 2001-2013
</metadata>
<g transform="translate(0.000000,233.000000) scale(0.100000,-0.100000)"
fill="#000000" stroke="none">
<path d="M879 2145 c-134 -97 -364 -262 -511 -368 -148 -106 -267 -196 -265
-202 4 -18 221 -317 232 -322 10 -3 207 133 435 301 66 49 335 242 348 250 10
6 101 -59 599 -424 l102 -75 0 -525 0 -525 206 -1 205 -1 1 96 c3 422 -2 1166
-8 1172 -5 5 -87 66 -183 137 l-175 129 -5 254 -5 254 -200 0 c-150 1 -201 -3
-205 -12 -3 -7 -5 -51 -4 -98 0 -47 -1 -85 -4 -85 -6 0 -251 178 -278 202 -11
10 -25 18 -31 18 -6 0 -120 -79 -254 -175z"/>
<path d="M650 635 l0 -631 313 2 c332 1 385 7 477 54 59 30 118 94 148 158 21
48 25 71 25 152 0 77 -4 104 -22 141 -25 53 -63 97 -104 124 l-28 18 35 34
c59 57 81 115 83 218 2 75 -2 100 -22 149 -29 72 -79 125 -148 159 -90 44
-151 50 -464 51 l-293 2 0 -631z m546 294 c32 -30 33 -87 1 -117 -19 -18 -37
-22 -105 -24 l-82 -3 0 86 0 86 81 -3 c68 -2 85 -6 105 -25z m28 -454 c51 -34
42 -122 -17 -146 -17 -7 -68 -13 -114 -14 l-83 -2 0 87 c0 48 2 89 5 91 2 3
45 4 94 3 63 -2 97 -7 115 -19z"/>
</g>
</svg>
